<svg width="72" height="72" viewBox="0 0 72 72" fill="none" xmlns="http://www.w3.org/2000/svg">
<path d="M44.3597 10.2968C39.1376 8.8048 36.0965 13.3608 36.0682 14.5795C36.0399 15.7981 36.0016 60.1866 36.0016 62.0048C36.0016 64.1216 40.6292 64.383 43.8264 63.5837C46.3841 62.9442 48.0449 60.5197 48.5556 59.3873C49.5771 59.5872 52.1661 59.374 54.3505 56.9228C56.5349 54.4716 55.9712 50.5284 55.4163 48.8632L55.418 48.8632C56.4117 48.8949 60.5341 49.0262 62.1818 43.8872C63.9757 38.2921 58.9473 35.4749 58.9473 35.4749C58.9473 35.4749 64.9482 32.9712 62.5792 24.0379C61.0425 18.2429 53.7854 17.9765 50.455 17.9765C50.2107 16.4889 49.5818 11.7889 44.3597 10.2968Z" fill="url(#paint0_linear_4970_6918)"/>
<path d="M27.7731 10.2968C32.9952 8.8048 36.0363 13.3608 36.0646 14.5795C36.0929 15.7981 36.1312 60.1866 36.1312 62.0048C36.1312 64.1216 31.5037 64.383 28.3064 63.5837C25.7487 62.9442 24.0879 60.5197 23.5772 59.3873C22.5557 59.5872 19.9667 59.374 17.7823 56.9228C15.5979 54.4716 16.1616 50.5284 16.7165 48.8632L16.7149 48.8632C15.7211 48.8949 11.5987 49.0262 9.95103 43.8872C8.15713 38.2921 13.1855 35.4749 13.1855 35.4749C13.1855 35.4749 7.18464 32.9712 9.5536 24.0379C11.0903 18.2429 18.3474 17.9765 21.6778 17.9765C21.9221 16.4889 22.551 11.7889 27.7731 10.2968Z" fill="url(#paint1_linear_4970_6918)"/>
<path d="M29.4067 19.8418C29.54 21.7068 28.4076 25.6767 22.8125 26.6359" stroke="#F9F4EE" stroke-width="1.73182" stroke-linecap="round"/>
<path d="M24.5391 43.8203C26.5151 44.6196 30.294 47.5504 29.6013 52.8791" stroke="#F9F4EE" stroke-width="1.73182" stroke-linecap="round"/>
<path d="M43.8831 41.6475H42.4376L40.7511 37.2775C40.6797 37.0914 40.556 36.9319 40.3962 36.8195C40.2365 36.7072 40.0478 36.6473 39.8548 36.6475H36.9637C36.7081 36.6475 36.463 36.7528 36.2823 36.9404C36.1015 37.1279 36 37.3822 36 37.6475C36 37.9127 36.1015 38.167 36.2823 38.3546C36.463 38.5421 36.7081 38.6475 36.9637 38.6475H39.1995L40.886 43.0175C40.9574 43.2035 41.081 43.363 41.2408 43.4754C41.4006 43.5877 41.5892 43.6477 41.7822 43.6475H43.8831C44.1104 44.3147 44.5578 44.877 45.146 45.2351C45.7343 45.5932 46.4256 45.7239 47.0978 45.6042C47.77 45.4846 48.3797 45.1222 48.8193 44.5811C49.2589 44.04 49.5 43.3551 49.5 42.6475C49.5 41.9398 49.2589 41.2549 48.8193 40.7138C48.3797 40.1727 47.77 39.8103 47.0978 39.6907C46.4256 39.571 45.7343 39.7018 45.146 40.0598C44.5578 40.4179 44.1104 40.9802 43.8831 41.6475ZM47.5645 42.6475C47.5645 42.8452 47.5079 43.0386 47.4021 43.203C47.2962 43.3675 47.1456 43.4956 46.9696 43.5713C46.7935 43.647 46.5997 43.6668 46.4128 43.6282C46.2258 43.5897 46.0541 43.4944 45.9193 43.3546C45.7845 43.2147 45.6928 43.0365 45.6556 42.8425C45.6184 42.6486 45.6375 42.4475 45.7104 42.2648C45.7834 42.082 45.9069 41.9259 46.0654 41.816C46.2238 41.7061 46.4102 41.6475 46.6008 41.6475C46.8564 41.6475 47.1015 41.7528 47.2822 41.9404C47.4629 42.1279 47.5645 42.3822 47.5645 42.6475Z" fill="#F9F4EE"/>
<path d="M43.8831 27.6475L41.7822 27.6475C41.5892 27.6473 41.4006 27.7072 41.2408 27.8195C41.081 27.9319 40.9574 28.0914 40.886 28.2775L39.1995 32.6475L36.9637 32.6475C36.7081 32.6475 36.463 32.7528 36.2823 32.9404C36.1015 33.1279 36 33.3822 36 33.6475C36 33.9127 36.1015 34.167 36.2823 34.3546C36.463 34.5421 36.7081 34.6475 36.9637 34.6475L39.8548 34.6475C40.0478 34.6477 40.2364 34.5877 40.3962 34.4754C40.556 34.3631 40.6797 34.2035 40.7511 34.0175L42.4376 29.6475L43.8831 29.6475C44.1104 30.3147 44.5578 30.877 45.146 31.2351C45.7343 31.5932 46.4256 31.7239 47.0978 31.6043C47.77 31.4846 48.3797 31.1222 48.8193 30.5811C49.2589 30.0401 49.5 29.3552 49.5 28.6475C49.5 27.9398 49.2589 27.2549 48.8193 26.7138C48.3797 26.1727 47.77 25.8103 47.0978 25.6907C46.4256 25.571 45.7343 25.7018 45.146 26.0598C44.5578 26.4179 44.1104 26.9803 43.8831 27.6475ZM47.5645 28.6475C47.5645 28.8452 47.5079 29.0386 47.4021 29.203C47.2962 29.3675 47.1456 29.4957 46.9696 29.5713C46.7935 29.647 46.5997 29.6668 46.4128 29.6282C46.2258 29.5897 46.0541 29.4944 45.9193 29.3546C45.7845 29.2147 45.6928 29.0365 45.6556 28.8426C45.6184 28.6486 45.6375 28.4475 45.7104 28.2648C45.7834 28.0821 45.9069 27.9259 46.0654 27.816C46.2238 27.7061 46.4102 27.6475 46.6008 27.6475C46.8564 27.6475 47.1015 27.7528 47.2822 27.9404C47.4629 28.1279 47.5645 28.3822 47.5645 28.6475Z" fill="#F9F4EE"/>
<path d="M41.7067 49.8444C39.5879 47.8194 39.548 47.6475 38.9983 47.6475H36.9994C36.7344 47.6475 36.4802 47.7481 36.2927 47.9272C36.1053 48.1064 36 48.3493 36 48.6027C36 48.856 36.1053 49.0989 36.2927 49.2781C36.4802 49.4572 36.7344 49.5579 36.9994 49.5579H38.5885L40.2975 51.1912C39.9919 51.8011 39.9219 52.4947 40.0997 53.1492C40.2776 53.8038 40.6919 54.3771 41.2694 54.7678C41.8469 55.1585 42.5503 55.3414 43.2554 55.2842C43.9604 55.227 44.6215 54.9334 45.1218 54.4552C45.6221 53.977 45.9294 53.3452 45.9892 52.6713C46.0491 51.9975 45.8577 51.3252 45.4489 50.7732C45.0401 50.2213 44.4402 49.8253 43.7554 49.6553C43.0705 49.4854 42.3449 49.5523 41.7067 49.8444ZM42.996 53.3786C42.7995 53.3779 42.6076 53.3218 42.4444 53.2173C42.2811 53.1129 42.1536 52.9648 42.0779 52.7916C42.0022 52.6183 41.9816 52.4275 42.0186 52.2432C42.0557 52.0588 42.1489 51.8889 42.2864 51.7548C42.4019 51.6422 42.5447 51.5587 42.7021 51.5117C42.8596 51.4647 43.0268 51.4557 43.1888 51.4854C43.3507 51.5152 43.5025 51.5828 43.6305 51.6822C43.7585 51.7817 43.8588 51.9099 43.9223 52.0553C43.9859 52.2008 44.0108 52.3591 43.9948 52.516C43.9789 52.6729 43.9225 52.8236 43.8308 52.9546C43.739 53.0856 43.6148 53.1929 43.4691 53.2669C43.3235 53.3409 43.1609 53.3793 42.996 53.3786Z" fill="#F9F4EE"/>
<path d="M36.9994 24.6405C39.1882 24.6405 39.3381 24.7169 39.7079 24.3634L41.7067 22.4524C42.3449 22.7445 43.0705 22.8115 43.7554 22.6415C44.4402 22.4714 45.0401 22.0753 45.4489 21.5232C45.8577 20.9711 46.0491 20.2985 45.9892 19.6245C45.9294 18.9504 45.6221 18.3183 45.1218 17.84C44.6215 17.3617 43.9604 17.0679 43.2554 17.0107C42.5503 16.9535 41.8469 17.1365 41.2694 17.5273C40.6919 17.9182 40.2776 18.4917 40.0997 19.1464C39.9219 19.8012 39.9919 20.495 40.2975 21.1051L38.5885 22.7295H36.9994C36.7344 22.7295 36.4802 22.8301 36.2927 23.0093C36.1053 23.1885 36 23.4316 36 23.685C36 23.9384 36.1053 24.1814 36.2927 24.3606C36.4802 24.5398 36.7344 24.6405 36.9994 24.6405ZM42.996 18.9074C43.1603 18.9067 43.3223 18.9448 43.4676 19.0183C43.6129 19.0918 43.737 19.1984 43.8288 19.3287C43.9207 19.459 43.9776 19.609 43.9944 19.7653C44.0112 19.9216 43.9874 20.0795 43.9251 20.2249C43.8628 20.3703 43.764 20.4988 43.6374 20.599C43.5108 20.6992 43.3603 20.768 43.1992 20.7993C43.0381 20.8306 42.8715 20.8234 42.714 20.7784C42.5565 20.7334 42.4131 20.652 42.2964 20.5413C42.156 20.4082 42.0601 20.2384 42.0208 20.0532C41.9814 19.868 42.0004 19.6758 42.0752 19.5009C42.1501 19.326 42.2776 19.1763 42.4415 19.0706C42.6053 18.965 42.7983 18.9082 42.996 18.9074Z" fill="#F9F4EE"/>
<defs>
<linearGradient id="paint0_linear_4970_6918" x1="37.8515" y1="16.75" x2="58.1694" y2="13.8209" gradientUnits="userSpaceOnUse">
<stop stop-color="#FF7D35"/>
<stop offset="1" stop-color="#FDF5F2"/>
</linearGradient>
<linearGradient id="paint1_linear_4970_6918" x1="34.2813" y1="16.75" x2="13.9634" y2="13.8209" gradientUnits="userSpaceOnUse">
<stop stop-color="#FF7D35"/>
<stop offset="1" stop-color="#FDF5F2"/>
</linearGradient>
</defs>
</svg>
