<svg width="72" height="72" viewBox="0 0 72 72" fill="none" xmlns="http://www.w3.org/2000/svg">
<path fill-rule="evenodd" clip-rule="evenodd" d="M36.0063 4.99902C33.1898 4.99902 30.9067 7.28221 30.9067 10.0986V10.7398C29.0345 11.2209 27.2662 11.961 25.6424 12.9198L25.1899 12.4673C23.1983 10.4757 19.9694 10.4757 17.9779 12.4673C15.9864 14.4588 15.9864 17.6877 17.9779 19.6792L18.4279 20.1292C17.4668 21.7542 16.7248 23.5241 16.2425 25.3983H15.6006C12.7842 25.3983 10.501 27.6814 10.501 30.4979C10.501 33.3143 12.7842 35.5975 15.6006 35.5975H16.2426C16.7244 37.4695 17.4653 39.2375 18.4248 40.861L17.9709 41.315C15.9793 43.3065 15.9793 46.5354 17.9709 48.5269C19.9624 50.5185 23.1913 50.5185 25.1828 48.5269L25.6372 48.0726C27.2625 49.0328 29.0325 49.774 30.9067 50.2556V50.8956C30.9067 53.7121 33.1898 55.9952 36.0063 55.9952C38.8227 55.9952 41.1059 53.7121 41.1059 50.8956V50.2515C42.9771 49.7691 44.7442 49.0278 46.3669 48.0682L46.8257 48.527C48.8173 50.5186 52.0462 50.5186 54.0377 48.527C56.0292 46.5355 56.0292 43.3066 54.0377 41.3151L53.5763 40.8537C54.5337 39.2322 55.2731 37.4667 55.7542 35.5975H56.3976C59.214 35.5975 61.4972 33.3143 61.4972 30.4979C61.4972 27.6814 59.214 25.3983 56.3976 25.3983H55.7543C55.2727 23.5269 54.5322 21.7595 53.5732 20.1365L54.0306 19.6791C56.0222 17.6876 56.0222 14.4587 54.0306 12.4672C52.0391 10.4756 48.8102 10.4756 46.8187 12.4672L46.3617 12.9241C44.7405 11.966 42.9751 11.2258 41.1059 10.7439V10.0986C41.1059 7.2822 38.8227 4.99902 36.0063 4.99902ZM35.9952 45.7958C44.4445 45.7958 51.294 38.9463 51.294 30.497C51.294 22.0476 44.4445 15.1981 35.9952 15.1981C27.5458 15.1981 20.6963 22.0476 20.6963 30.497C20.6963 38.9463 27.5458 45.7958 35.9952 45.7958Z" fill="url(#paint0_linear_4970_8677)"/>
<circle cx="36.0069" cy="30.4971" r="10.1992" fill="url(#paint1_linear_4970_8677)"/>
<path d="M31.3158 33.6489C33.5147 29.7902 39.0119 29.7902 41.2108 33.6489L55.0637 57.959C57.2626 61.8177 54.514 66.6411 50.1162 66.6411H22.4103C18.0126 66.6411 15.264 61.8177 17.4629 57.959L31.3158 33.6489Z" fill="url(#paint2_linear_4970_8677)"/>
<path d="M33.1595 42.9859C33.0709 41.2133 34.4842 39.7275 36.259 39.7275C38.0338 39.7275 39.4471 41.2133 39.3584 42.9859L38.9992 50.1704C38.9262 51.6306 37.721 52.7771 36.259 52.7771C34.7969 52.7771 33.5917 51.6306 33.5187 50.1704L33.1595 42.9859Z" fill="white"/>
<ellipse cx="36.2642" cy="57.6704" rx="2.44679" ry="2.44679" fill="white"/>
<defs>
<linearGradient id="paint0_linear_4970_8677" x1="10.501" y1="9.46119" x2="65.3797" y2="50.847" gradientUnits="userSpaceOnUse">
<stop stop-color="#FF7D35"/>
<stop offset="1" stop-color="#E8D4C8"/>
</linearGradient>
<linearGradient id="paint1_linear_4970_8677" x1="25.8076" y1="22.0827" x2="47.7591" y2="38.637" gradientUnits="userSpaceOnUse">
<stop stop-color="#FF7D35"/>
<stop offset="1" stop-color="#E8D4C8"/>
</linearGradient>
<linearGradient id="paint2_linear_4970_8677" x1="53.1684" y1="35.2407" x2="25.9122" y2="26.709" gradientUnits="userSpaceOnUse">
<stop stop-color="#FF7D35"/>
<stop offset="1" stop-color="#FDF5F2"/>
</linearGradient>
</defs>
</svg>
